<mxfile host="app.diagrams.net" modified="2023-06-19T13:09:06.160Z" agent="Mozilla/5.0 (Windows NT 10.0; Win64; x64) AppleWebKit/537.36 (KHTML, like Gecko) Chrome/114.0.0.0 Safari/537.36" version="21.5.0" etag="5LBwRxD6ymMiC8p5hhpu" type="github">
  <diagram name="PÃ¡gina-1" id="amRLc2BkU1Gjy3Tvq3-x">
    <mxGraphModel>
      <root>
        <mxCell id="0" />
        <mxCell id="1" parent="0" />
      </root>
    </mxGraphModel>
  </diagram>
</mxfile>
